<svg xmlns="http://www.w3.org/2000/svg" width="14.001" height="14.001" viewBox="0 0 14.001 14.001"><defs><style>.a{fill:#7f8fa4;}</style></defs><g transform="translate(0 0)"><path class="a" d="M-.1.571l-3.32-3.32a.325.325,0,0,0-.232-.1h-.361A5.672,5.672,0,0,0-2.625-6.562,5.687,5.687,0,0,0-8.313-12.25,5.687,5.687,0,0,0-14-6.562,5.687,5.687,0,0,0-8.313-.875,5.672,5.672,0,0,0-4.594-2.259V-1.9a.336.336,0,0,0,.1.232l3.32,3.32a.328.328,0,0,0,.465,0L-.1,1.036A.328.328,0,0,0-.1.571ZM-8.313-2.187a4.374,4.374,0,0,1-4.375-4.375,4.374,4.374,0,0,1,4.375-4.375A4.374,4.374,0,0,1-3.938-6.562,4.374,4.374,0,0,1-8.313-2.187Z" transform="translate(14 12.25)"/></g></svg>